# Made in Blockbench 4.6.4

o cube
v 0.5 0.5 -0.3125
v 0.5 0.5 -0.5
v 0.5 -0.5 -0.3125
v 0.5 -0.5 -0.5
v -0.5 0.5 -0.5
v -0.5 0.5 -0.3125
v -0.5 -0.5 -0.5
v -0.5 -0.5 -0.3125
vt 0 1
vt 1 1
vt 1 0
vt 0 0
vt 0.1875 1
vt 0 1
vt 0 0
vt 0.1875 0
vt 1 1
vt 0 1
vt 0 0
vt 1 0
vt 0 1
vt 0.1875 1
vt 0.1875 0
vt 0 0
vt 1 0.1875
vt 0 0.1875
vt 0 0
vt 1 0
vn 0 0 -1
vn 1 0 0
vn 0 0 1
vn -1 0 0
vn 0 -1 0
f 4/4/1 7/3/1 5/2/1 2/1/1
f 3/8/2 4/7/2 2/6/2 1/5/2
f 8/12/3 3/11/3 1/10/3 6/9/3
f 7/16/4 8/15/4 6/14/4 5/13/4
f 7/20/5 4/19/5 3/18/5 8/17/5
