# Made in Blockbench 4.6.4

o cube
v 0.5 -0.5 -0.5
v -0.5 -0.5 -0.5
v -0.5 0.5 -0.5
v 0.5 0.5 -0.5
v 0.5 -0.5 -0.3125
v 0.5 0.5 -0.3125
v -0.5 -0.5 -0.3125
v -0.5 0.5 -0.3125
vt 0 0
vt 1 0
vt 1 1
vt 0 1
vt 0.1875 0
vt 0 0
vt 0 1
vt 0.1875 1
vt 1 0
vt 0 0
vt 0 1
vt 1 1
vt 0.1875 0
vt 0 0
vt 0 1
vt 0.1875 1
vt 1 1
vt 0 1
vt 0 0.8125
vt 1 0.8125
vn 0 0 -1
vn 1 0 0
vn 0 0 1
vn -1 0 0
vn 0 1 0
f 1/1/1 2/2/1 3/3/1 4/4/1
f 5/5/2 1/6/2 4/7/2 6/8/2
f 7/9/3 5/10/3 6/11/3 8/12/3
f 2/13/4 7/14/4 8/15/4 3/16/4
f 8/17/5 6/18/5 4/19/5 3/20/5
